<svg xmlns="http://www.w3.org/2000/svg" viewBox="0 0 100 100">
  <rect width="100" height="100" fill="#FAF7F2"/>
  <g transform="translate(50, 50) scale(3.2)" stroke="#A14C41" stroke-width="1.5" fill="none" stroke-linecap="round" stroke-linejoin="round">
    <circle cx="0" cy="-2" r="2"/>
    <path d="M0 -4 C2 -5, 4 -4, 4 -2 C4 0, 2 1, 0 1"/>
    <path d="M0 -4 C-2 -5, -4 -4, -4 -2 C-4 0, -2 1, 0 1"/>
    <path d="M3 -2 C4 -4, 5 -3, 5 -1 C5 1, 3 1, 1 0"/>
    <path d="M-3 -2 C-4 -4, -5 -3, -5 -1 C-5 1, -3 1, -1 0"/>
    <path d="M0 1 L0 9"/>
    <path d="M0 5 C1 4.5, 2 5, 2 6"/>
    <path d="M0 7 C-1 6.5, -2 7, -2 8"/>
  </g>
</svg>
