<svg xmlns="http://www.w3.org/2000/svg" width="24" height="24" viewBox="0 0 24 24" fill="none" stroke="currentColor" stroke-width="1.5" stroke-linecap="round" stroke-linejoin="round">
  <circle cx="12" cy="10" r="2"/>
  <path d="M12 8 C14 7, 16 8, 16 10 C16 12, 14 13, 12 13"/>
  <path d="M12 8 C10 7, 8 8, 8 10 C8 12, 10 13, 12 13"/>
  <path d="M15 10 C16 8, 17 9, 17 11 C17 13, 15 13, 13 12"/>
  <path d="M9 10 C8 8, 7 9, 7 11 C7 13, 9 13, 11 12"/>
  <path d="M12 13 L12 21"/>
  <path d="M12 17 C13 16.5, 14 17, 14 18"/>
  <path d="M12 19 C11 18.5, 10 19, 10 20"/>
</svg>
